Coordinates
version=1
nRows=74
nColumns=11
inDegrees=no

Units are S.I. units (second, meters, Newtons, ...)
If the header above contains a line with 'inDegrees', this indicates whether rotational values are in degrees (yes) or radians (no).

endheader
time	pelvis_tilt	pelvis_tx	pelvis_ty	hip_flexion_r	knee_angle_r	ankle_angle_r	hip_flexion_l	knee_angle_l	ankle_angle_l	lumbar_extension
315.88	0.0606633	0.191738	0.998194	0.153031	-1.06144	0.169073	-0.0480635	0.0752095	0.0108068	0
315.89	0.0489372	0.188004	0.998611	0.195377	-1.08318	0.172778	-0.038984	0.0726667	0.012341	0
315.9	0.0467761	0.186613	1.00007	0.219027	-1.09143	0.172813	-0.0392642	0.063299	0.0197815	0
315.91	0.0455539	0.185383	1.00154	0.239665	-1.09373	0.171292	-0.0406217	0.0538843	0.0267748	0
315.92	0.0438011	0.183621	1.00283	0.260683	-1.0919	0.168761	-0.0425439	0.0479084	0.0335104	0
315.93	0.0421405	0.181914	1.00414	0.279364	-1.08356	0.166487	-0.0437429	0.0400211	0.0425633	0
315.94	0.0407767	0.18056	1.00549	0.294935	-1.06861	0.16489	-0.0479693	0.0363838	0.0477526	0
315.95	0.0509354	0.18188	1.00753	0.29039	-1.04396	0.161719	-0.0680067	0.033356	0.0571816	0
315.96	0.0389748	0.178586	1.00693	0.322903	-1.02817	0.16101	-0.0574687	0.0310106	0.0645806	0
315.97	0.0710087	0.182968	1.01037	0.286198	-0.996461	0.15144	-0.102018	0.0175638	0.0814707	0
315.98	0.0739257	0.182766	1.01143	0.287694	-0.959281	0.146071	-0.113031	0.0166641	0.0901941	0
315.99	0.0345632	0.174357	1.00878	0.347641	-0.922916	0.144171	-0.0707444	0.0237526	0.0868734	0
316	0.0306314	0.172415	1.00872	0.356397	-0.88154	0.13779	-0.0711328	0.0194241	0.0949937	0
316.01	0.0310173	0.171357	1.009	0.356862	-0.835457	0.136501	-0.0790529	0.0170574	0.104983	0
316.02	0.0455863	0.173498	1.01066	0.332652	-0.779258	0.138054	-0.10816	0.0197849	0.114326	0
316.03	0.0465291	0.173035	1.01086	0.326375	-0.72279	0.141775	-0.120038	0.0246762	0.117106	0
316.04	0.0478066	0.172877	1.01062	0.319849	-0.667461	0.140757	-0.129535	0.0245719	0.126945	0
316.05	0.0315863	0.168938	1.00875	0.336502	-0.612741	0.135455	-0.11755	0.0264777	0.132228	0
316.06	0.0307215	0.1688	1.00818	0.328766	-0.550393	0.121779	-0.125337	0.0277173	0.141416	0
316.07	0.0441422	0.171241	1.00886	0.299812	-0.486682	0.107396	-0.154632	0.0319046	0.153822	0
316.08	0.0432342	0.170857	1.00824	0.291283	-0.424045	0.0905812	-0.161985	0.0322581	0.163217	0
316.09	0.0451035	0.170587	1.00766	0.276888	-0.360144	0.0729591	-0.173288	0.0313393	0.175041	0
316.1	0.0448279	0.170265	1.0065	0.263757	-0.294553	0.0551632	-0.183837	0.0348287	0.186389	0
316.11	0.0459278	0.170601	1.00548	0.24875	-0.231247	0.0392968	-0.197462	0.0403364	0.196585	0
316.12	0.0457917	0.170974	1.00443	0.235559	-0.171088	0.0237859	-0.208402	0.0437026	0.205232	0
316.13	0.0497907	0.172083	1.00356	0.217494	-0.117012	0.0168901	-0.22377	0.0438521	0.21546	0
316.14	0.0519276	0.173232	1.00237	0.201998	-0.0673829	0.0145405	-0.234247	0.0397429	0.226568	0
316.15	0.0526022	0.173587	1.00114	0.189985	-0.0258377	0.0141789	-0.242264	0.0349177	0.238771	0
316.16	0.0558563	0.174512	1.00022	0.176091	0.00721295	0.0175126	-0.253751	0.030511	0.252974	0
316.17	0.0581062	0.175648	0.99909	0.164248	0.0335602	0.0275996	-0.264818	0.027293	0.264836	0
316.18	0.0602401	0.17659	0.99799	0.153729	0.0524066	0.0406965	-0.2717	0.0164667	0.276683	0
316.19	0.0616301	0.177155	0.997045	0.146459	0.0614103	0.0512268	-0.273281	-0.00163816	0.292644	0
316.2	0.0634198	0.177903	0.99651	0.140241	0.0605818	0.0529152	-0.274416	-0.0215074	0.308794	0
316.21	0.0653841	0.179023	0.995974	0.134272	0.0535819	0.0427356	-0.275821	-0.0423461	0.324707	0
316.22	0.0667241	0.180094	0.995343	0.129652	0.0447386	0.0247724	-0.274918	-0.0662497	0.341814	0
316.23	0.0672761	0.180708	0.994588	0.125932	0.0380495	0.00653684	-0.271559	-0.0919101	0.3592	0
316.24	0.0913282	0.18481	0.995752	0.0949321	0.0254901	-0.00962043	-0.29379	-0.127963	0.375932	0
316.25	0.069831	0.18227	0.993107	0.112447	0.0340259	-0.0323533	-0.263493	-0.149379	0.388133	0
316.26	0.0922668	0.186309	0.993701	0.0826296	0.0239881	-0.0544292	-0.278141	-0.195568	0.40678	0
316.27	0.0947962	0.187774	0.992735	0.0740089	0.0235959	-0.0702664	-0.273411	-0.22874	0.416732	0
316.28	0.0964564	0.188934	0.992008	0.0677183	0.0208162	-0.0782721	-0.266903	-0.262088	0.422151	0
316.29	0.0990521	0.190153	0.991602	0.0606735	0.0156495	-0.0793808	-0.261954	-0.294728	0.425302	0
316.3	0.106138	0.192044	0.991865	0.0497526	0.00524016	-0.0721151	-0.261041	-0.329927	0.4258	0
316.31	0.108859	0.193744	0.992035	0.0399517	0.000717138	-0.0603249	-0.254761	-0.365731	0.423305	0
316.32	0.0873381	0.191786	0.990829	0.0566107	0.00657616	-0.0503688	-0.215529	-0.401346	0.413229	0
316.33	0.113539	0.195873	0.993092	0.0208909	-0.00800093	-0.0376404	-0.225134	-0.463026	0.401277	0
316.34	0.117389	0.19691	0.994083	0.00571106	-0.00673839	-0.0238354	-0.210748	-0.511883	0.383157	0
316.35	0.119669	0.197838	0.995107	-0.00893719	-0.00386297	-0.0111547	-0.192346	-0.562827	0.36012	0
316.36	0.121659	0.198755	0.99629	-0.0237425	0.000287902	-0.000708902	-0.172282	-0.614837	0.332029	0
316.37	0.0992012	0.196032	0.996101	-0.0104442	0.0128052	0.00903945	-0.122283	-0.660256	0.301021	0
316.38	0.098364	0.19575	0.997416	-0.0189717	0.0137492	0.0145132	-0.0945812	-0.715069	0.266579	0
316.39	0.0980757	0.195789	0.998447	-0.0293276	0.0186113	0.0175992	-0.0655476	-0.769421	0.233667	0
316.4	0.0986326	0.195521	0.999453	-0.0403776	0.0228376	0.0234383	-0.0389887	-0.818656	0.206621	0
316.41	0.0984162	0.194826	1.00023	-0.0485311	0.0236201	0.0304119	-0.0129025	-0.862433	0.191201	0
316.42	0.0979651	0.193866	1.0007	-0.0572424	0.0255964	0.0417262	0.0123971	-0.903174	0.189724	0
316.43	0.0970619	0.192874	1.00157	-0.0653111	0.0277188	0.0467199	0.0368268	-0.937508	0.191642	0
316.44	0.117799	0.195615	1.00383	-0.0985896	0.0229099	0.0520716	0.0316116	-0.966562	0.189042	0
316.45	0.0990939	0.191793	1.0034	-0.0883464	0.0355738	0.0547327	0.0776592	-0.989494	0.18993	0
316.46	0.0985037	0.19076	1.00416	-0.0950913	0.0355812	0.0618893	0.100574	-1.01016	0.187034	0
316.47	0.123123	0.194577	1.00658	-0.130284	0.0254101	0.0743584	0.0873487	-1.02369	0.178839	0
316.48	0.09717	0.189353	1.00613	-0.110822	0.037005	0.0796606	0.137226	-1.02789	0.178712	0
316.49	0.082001	0.185029	1.00616	-0.0961007	0.0328654	0.0780432	0.178974	-1.03893	0.181538	0
316.5	0.0893145	0.186023	1.008	-0.111837	0.0297046	0.0855443	0.181389	-1.02939	0.178282	0
316.51	0.0934637	0.185443	1.00957	-0.125061	0.0276841	0.0904488	0.186609	-1.0173	0.176601	0
316.52	0.0903892	0.183965	1.01047	-0.129407	0.0275781	0.0916725	0.202053	-1.00355	0.180698	0
316.53	0.0885308	0.182784	1.01145	-0.133917	0.0252308	0.0947584	0.214937	-0.985468	0.181417	0
316.54	0.0842719	0.180465	1.01215	-0.134706	0.0221983	0.101511	0.230214	-0.964927	0.178577	0
316.55	0.10625	0.183714	1.01439	-0.1652	0.0119129	0.112193	0.208822	-0.939825	0.175924	0
316.56	0.0828341	0.178781	1.01361	-0.14512	0.0199084	0.116183	0.243668	-0.906011	0.180308	0
316.57	0.0790951	0.176812	1.01402	-0.144792	0.01354	0.123627	0.252858	-0.87291	0.179947	0
316.58	0.0670528	0.172939	1.01339	-0.134856	0.0106337	0.127614	0.275432	-0.841953	0.180182	0
316.59	0.0648727	0.171299	1.01355	-0.13802	0.00762725	0.135493	0.281384	-0.80441	0.180787	0
316.6	0.0980059	0.176363	1.01647	-0.184511	-0.00406187	0.147147	0.238014	-0.764929	0.178169	0
316.61	0.0978663	0.175467	1.01684	-0.193031	-0.00279154	0.15254	0.23641	-0.719954	0.177426	0
